Coordinates
version=1
nRows=21
nColumns=22
inDegrees=yes

Units are S.I. units (second, meters, Newtons, ...)
If the header above contains a line with 'inDegrees', this indicates whether rotational values are in degrees (yes) or radians (no).

endheader
time	pelvis_tilt	pelvis_list	pelvis_rotation	pelvis_tx	pelvis_ty	pelvis_tz	hip_flexion_r	hip_adduction_r	hip_rotation_r	knee_angle_r	ankle_angle_r	subtalar_angle_r	hip_flexion_l	hip_adduction_l	hip_rotation_l	knee_angle_l	ankle_angle_l	subtalar_angle_l	lumbar_extension	lumbar_bending	lumbar_rotation
      2.98000000	     13.97428754	     -6.62315772	      6.42634679	      1.23873855	      0.94500664	      0.09056341	     -8.13908875	     12.15679933	     -7.65391302	    -13.81522492	      7.65336245	     -2.02742501	      8.19238700	    -13.08706289	      1.46560423	    -39.65271239	     16.73619772	     -8.62343443	    -17.65320517	      8.79821600	     -2.80112812
      2.99000000	     13.77065739	     -6.79052393	      6.15308885	      1.24179346	      0.94481990	      0.09037544	     -8.33890695	     12.24043126	     -7.46880403	    -13.45101408	      7.67792298	     -1.80750209	      7.67996574	    -13.20865284	      1.69318940	    -38.60197397	     16.77245296	     -8.32396229	    -17.46516017	      8.91876832	     -2.77180051
      3.00000000	     13.54612097	     -6.95442256	      5.87938116	      1.24482774	      0.94462900	      0.09015066	     -8.51916052	     12.31769154	     -7.26126717	    -13.08013531	      7.68410051	     -1.57831690	      7.14511286	    -13.34705893	      1.85140429	    -37.58572157	     16.92229542	     -7.99925372	    -17.24390824	      9.03591804	     -2.75057379
      3.01000000	     13.31136032	     -7.10737333	      5.60246306	      1.24785420	      0.94446019	      0.08989829	     -8.69988252	     12.38318506	     -7.02933758	    -12.68950403	      7.67399134	     -1.34171738	      6.57833637	    -13.49954610	      1.90200727	    -36.59713031	     17.18145181	     -7.64314671	    -16.99901811	      9.13863119	     -2.73122910
      3.02000000	     13.06867133	     -7.23915048	      5.32119465	      1.25087302	      0.94432929	      0.08960730	     -8.88197871	     12.42445690	     -6.78345491	    -12.28464556	      7.65383360	     -1.11131765	      5.97996586	    -13.65032362	      1.82609796	    -35.62075113	     17.52862607	     -7.27607466	    -16.73179060	      9.21640970	     -2.71262867
      3.03000000	     12.82594198	     -7.33656235	      5.03991485	      1.25386860	      0.94426136	      0.08925236	     -9.07441396	     12.42771831	     -6.52691997	    -11.86382353	      7.62386073	     -0.89085066	      5.34372927	    -13.78045703	      1.60224790	    -34.63050065	     17.92947034	     -6.91595113	    -16.45642011	      9.25992566	     -2.70573674
      3.04000000	     12.59189065	     -7.39731813	      4.76043440	      1.25684105	      0.94427326	      0.08883034	     -9.28839948	     12.39101565	     -6.26816635	    -11.42325846	      7.59320224	     -0.68889982	      4.66722312	    -13.88357637	      1.21856987	    -33.61000532	     18.35918333	     -6.59212969	    -16.18313837	      9.26696439	     -2.69749995
      3.05000000	     12.37759383	     -7.40727644	      4.49609702	      1.25978347	      0.94438904	      0.08832685	     -9.53836931	     12.30284185	     -6.01056746	    -10.95735010	      7.55244895	     -0.49296272	      3.94676323	    -13.94259086	      0.66361394	    -32.54223862	     18.76179391	     -6.31248178	    -15.92651608	      9.22632292	     -2.72806144
      3.06000000	     12.16394180	     -7.37257889	      4.26161584	      1.26270727	      0.94456340	      0.08772216	     -9.79670110	     12.16961721	     -5.78260591	    -10.47742116	      7.51939294	     -0.32541742	      3.22461944	    -13.95179068	     -0.02419910	    -31.43864440	     19.13437094	     -6.11953714	    -15.65678492	      9.14386648	     -2.77789509
      3.07000000	     11.96134903	     -7.28343128	      4.06099011	      1.26560967	      0.94481838	      0.08702217	    -10.08252222	     11.98400370	     -5.58530789	     -9.96455115	      7.48205345	     -0.16248864	      2.49337136	    -13.89734964	     -0.82756549	    -30.29880967	     19.44003864	     -5.99784017	    -15.38784854	      9.00739277	     -2.85797924
      3.08000000	     11.74901978	     -7.14299112	      3.89638947	      1.26848551	      0.94511034	      0.08624141	    -10.36497257	     11.74859030	     -5.43728602	     -9.43282661	      7.45743630	     -0.01040656	      1.79249065	    -13.77595155	     -1.70392258	    -29.14726563	     19.65745830	     -5.94368165	    -15.09816916	      8.81558748	     -2.95289067
      3.09000000	     11.55371644	     -6.94776098	      3.79414313	      1.27130773	      0.94547329	      0.08533270	    -10.66451126	     11.46733339	     -5.32511282	     -8.89300607	      7.41092329	      0.16124226	      1.10046592	    -13.57870090	     -2.58514392	    -27.98404234	     19.78389801	     -5.91694371	    -14.81888021	      8.57629042	     -3.14484685
      3.10000000	     11.33247180	     -6.70610519	      3.74191341	      1.27407653	      0.94582432	      0.08431692	    -10.92985590	     11.14309501	     -5.27446904	     -8.35122200	      7.37891851	      0.32496417	      0.48163897	    -13.31098820	     -3.42733100	    -26.84950659	     19.81241780	     -5.89510730	    -14.50291879	      8.28941979	     -3.36067015
      3.11000000	     11.11213791	     -6.42724040	      3.74993861	      1.27678803	      0.94618793	      0.08318414	    -11.18489379	     10.79062431	     -5.26430223	     -7.81816879	      7.34257273	      0.49318571	     -0.09253710	    -12.98631948	     -4.18197440	    -25.74237382	     19.76914513	     -5.84040282	    -14.18000470	      7.97052480	     -3.63988702
      3.12000000	     10.87625502	     -6.12077895	      3.80683740	      1.27942220	      0.94652350	      0.08194860	    -11.40207367	     10.41649084	     -5.29712037	     -7.30951726	      7.31668210	      0.65054737	     -0.59834335	    -12.61548091	     -4.82112530	    -24.68009663	     19.65633076	     -5.73791769	    -13.83897776	      7.62719544	     -3.95334741
      3.13000000	     10.63996309	     -5.79279435	      3.90484585	      1.28197926	      0.94684211	      0.08061233	    -11.59480578	     10.02497317	     -5.36714079	     -6.83312906	      7.30357963	      0.79796266	     -1.05585037	    -12.21014275	     -5.34142188	    -23.66521363	     19.48932002	     -5.57731891	    -13.49973583	      7.26682446	     -4.28844929
      3.14000000	     10.39922638	     -5.44929589	      4.02921210	      1.28444376	      0.94712687	      0.07918212	    -11.75092340	      9.61765976	     -5.47517304	     -6.40355976	      7.30923147	      0.92383510	     -1.46341183	    -11.77815883	     -5.75006852	    -22.70027983	     19.27666886	     -5.36926817	    -13.16487564	      6.89735037	     -4.63304446
      3.15000000	     10.17103423	     -5.09585263	      4.17055601	      1.28683947	      0.94739694	      0.07766357	    -11.88298878	      9.19749237	     -5.61643152	     -6.03861820	      7.33851368	      1.03220211	     -1.85104737	    -11.32925729	     -6.06547690	    -21.77812136	     19.02768826	     -5.10986055	    -12.84677344	      6.52488143	     -4.96779340
      3.16000000	      9.96422548	     -4.74597769	      4.30926045	      1.28913224	      0.94764994	      0.07607675	    -11.99782353	      8.77376170	     -5.77882574	     -5.73730900	      7.38121323	      1.13582022	     -2.23745033	    -10.87895608	     -6.31220020	    -20.88954015	     18.78783705	     -4.75703636	    -12.56977169	      6.16588563	     -5.26028849
      3.17000000	      9.71353284	     -4.41064905	      4.44089960	      1.29126552	      0.94778642	      0.07443526	    -11.99032408	      8.35143501	     -5.95870775	     -5.55703785	      7.45676662	      1.18199187	     -2.53232779	    -10.43347458	     -6.48804140	    -20.06094193	     18.50479202	     -4.50656330	    -12.26124657	      5.83131951	     -5.53498110
      3.18000000	      9.57929119	     -4.07415517	      4.57345752	      1.29330456	      0.94800995	      0.07274035	    -12.07662392	      7.92832582	     -6.19065476	     -5.43007586	      7.57788513	      1.26157804	     -2.93630788	    -10.00166707	     -6.69605478	    -19.26498258	     18.25279097	     -3.99113381	    -12.10886658	      5.51172451	     -5.79651881
